<svg xmlns="http://www.w3.org/2000/svg" xmlns:xlink="http://www.w3.org/1999/xlink" xmlns:lucid="lucid" width="1452" height="882.01"><g transform="translate(-199 9.010163606849034)" lucid:page-tab-id="0_0"><path d="M0-500h2000v1500H0z" fill="#fff"/><path d="M200 64a8 8 0 0 1 8-8h264a8 8 0 0 1 8 8v267a8 8 0 0 1-8 8H208a8 8 0 0 1-8-8z" fill="#fff"/><path d="M200 96v33h280V96" fill="#fff"/><path d="M200 128v33h280v-33" fill="#fff"/><path d="M200 160v33h280v-33" fill="#fff"/><path d="M200 192v33h280v-33" fill="#fff"/><path d="M200 224v33h280v-33" fill="#fff"/><path d="M200 256v33h280v-33" fill="#fff"/><path d="M200 288v43a8 8 0 0 0 8 8h264a8 8 0 0 0 8-8v-43" fill="#fff"/><path d="M200 96h280M200 64a8 8 0 0 1 8-8h264a8 8 0 0 1 8 8v267a8 8 0 0 1-8 8H208a8 8 0 0 1-8-8zM244.73 96v243M370 96v243" stroke="#000" stroke-width="2" fill="none"/><use xlink:href="#a" transform="matrix(1,0,0,1,210,56) translate(109.9169921875 26.5478515625)"/><use xlink:href="#b" transform="matrix(1,0,0,1,205,98.5) translate(5.705078125 20.0478515625)"/><use xlink:href="#c" transform="matrix(1,0,0,1,249.72971159193833,98.5) translate(50.3095703125 20.0478515625)"/><use xlink:href="#d" transform="matrix(1,0,0,1,375,98.5) translate(0 19.589501953125)"/><use xlink:href="#e" transform="matrix(1,0,0,1,249.72971159193833,130.5) translate(35.4560546875 20.0478515625)"/><use xlink:href="#f" transform="matrix(1,0,0,1,375,130.5) translate(0 19.589501953125)"/><use xlink:href="#g" transform="matrix(1,0,0,1,249.72971159193833,162.5) translate(15.64990234375 20.0478515625)"/><use xlink:href="#f" transform="matrix(1,0,0,1,375,162.5) translate(0 19.589501953125)"/><use xlink:href="#h" transform="matrix(1,0,0,1,249.72971159193833,194.5) translate(16.498046875 20.0478515625)"/><use xlink:href="#f" transform="matrix(1,0,0,1,375,194.5) translate(0 19.589501953125)"/><use xlink:href="#i" transform="matrix(1,0,0,1,249.72971159193833,226.5) translate(13.51416015625 20.0478515625)"/><use xlink:href="#j" transform="matrix(1,0,0,1,375,226.5) translate(0 19.589501953125)"/><use xlink:href="#k" transform="matrix(1,0,0,1,249.72971159193833,258.5) translate(10.88623046875 20.0478515625)"/><use xlink:href="#j" transform="matrix(1,0,0,1,375,258.5) translate(0 19.589501953125)"/><use xlink:href="#l" transform="matrix(1,0,0,1,249.72971159193833,290.5) translate(14.0986328125 29.5478515625)"/><use xlink:href="#m" transform="matrix(1,0,0,1,375,290.5) translate(0 18.96212890625)"/><use xlink:href="#n" transform="matrix(1,0,0,1,375,290.5) translate(0 39.216875)"/><path d="M980 80a8 8 0 0 1 8-8h264a8 8 0 0 1 8 8v203a8 8 0 0 1-8 8H988a8 8 0 0 1-8-8z" fill="#fff"/><path d="M980 112v33h280v-33" fill="#fff"/><path d="M980 144v33h280v-33" fill="#fff"/><path d="M980 176v33h280v-33" fill="#fff"/><path d="M980 208v33h280v-33" fill="#fff"/><path d="M980 240v43a8 8 0 0 0 8 8h264a8 8 0 0 0 8-8v-43" fill="#fff"/><path d="M980 112h280M980 80a8 8 0 0 1 8-8h264a8 8 0 0 1 8 8v203a8 8 0 0 1-8 8H988a8 8 0 0 1-8-8zM1032.06 112v179M1154.73 112v179" stroke="#000" stroke-width="2" fill="none"/><use xlink:href="#o" transform="matrix(1,0,0,1,990,72) translate(107.99658203125 26.5478515625)"/><use xlink:href="#b" transform="matrix(1,0,0,1,985,114.5) translate(9.705078125 20.0478515625)"/><use xlink:href="#c" transform="matrix(1,0,0,1,1037.0564613262636,114.5) translate(48.8095703125 20.0478515625)"/><use xlink:href="#d" transform="matrix(1,0,0,1,1159.7304207872492,114.5) translate(0 19.589501953125)"/><use xlink:href="#p" transform="matrix(1,0,0,1,1037.0564613262636,146.5) translate(32.998046875 20.0478515625)"/><use xlink:href="#f" transform="matrix(1,0,0,1,1159.7304207872492,146.5) translate(0 19.589501953125)"/><use xlink:href="#i" transform="matrix(1,0,0,1,1037.0564613262636,178.5) translate(12.01416015625 20.0478515625)"/><use xlink:href="#j" transform="matrix(1,0,0,1,1159.7304207872492,178.5) translate(0 19.589501953125)"/><use xlink:href="#k" transform="matrix(1,0,0,1,1037.0564613262636,210.5) translate(9.38623046875 20.0478515625)"/><use xlink:href="#j" transform="matrix(1,0,0,1,1159.7304207872492,210.5) translate(0 19.589501953125)"/><use xlink:href="#l" transform="matrix(1,0,0,1,1037.0564613262636,242.5) translate(12.5986328125 29.5478515625)"/><use xlink:href="#m" transform="matrix(1,0,0,1,1159.7304207872492,242.5) translate(0 18.96212890625)"/><use xlink:href="#n" transform="matrix(1,0,0,1,1159.7304207872492,242.5) translate(0 39.216875)"/><path d="M580 0a8 8 0 0 1 8-8h284a8 8 0 0 1 8 8v267a8 8 0 0 1-8 8H588a8 8 0 0 1-8-8z" fill="#fff"/><path d="M580 32v33h300V32" fill="#fff"/><path d="M580 64v33h300V64" fill="#fff"/><path d="M580 96v33h300V96" fill="#fff"/><path d="M580 128v33h300v-33" fill="#fff"/><path d="M580 160v33h300v-33" fill="#fff"/><path d="M580 192v33h300v-33" fill="#fff"/><path d="M580 224v43a8 8 0 0 0 8 8h284a8 8 0 0 0 8-8v-43" fill="#fff"/><path d="M580 32h300M580 0a8 8 0 0 1 8-8h284a8 8 0 0 1 8 8v267a8 8 0 0 1-8 8H588a8 8 0 0 1-8-8zM640 32v243M781.56 32v243" stroke="#000" stroke-width="2" fill="none"/><use xlink:href="#q" transform="matrix(1,0,0,1,590,-8.010163606849034) translate(98.4189453125 26.5478515625)"/><use xlink:href="#b" transform="matrix(1,0,0,1,585,34.489836393150966) translate(13.205078125 20.0478515625)"/><use xlink:href="#c" transform="matrix(1,0,0,1,645,34.489836393150966) translate(58.3095703125 20.0478515625)"/><use xlink:href="#d" transform="matrix(1,0,0,1,786.5613990255197,34.489836393150966) translate(0 19.589501953125)"/><use xlink:href="#r" transform="matrix(1,0,0,1,645,66.48983639315097) translate(25.078125 20.0478515625)"/><use xlink:href="#f" transform="matrix(1,0,0,1,786.5613990255197,66.48983639315097) translate(0 19.589501953125)"/><use xlink:href="#s" transform="matrix(1,0,0,1,585,98.48983639315097) translate(13.64013671875 20.0478515625)"/><use xlink:href="#t" transform="matrix(1,0,0,1,645,98.48983639315097) translate(35.1943359375 20.0478515625)"/><use xlink:href="#d" transform="matrix(1,0,0,1,786.5613990255197,98.48983639315097) translate(0 19.589501953125)"/><use xlink:href="#s" transform="matrix(1,0,0,1,585,130.48983639315097) translate(13.64013671875 20.0478515625)"/><use xlink:href="#u" transform="matrix(1,0,0,1,645,130.48983639315097) translate(32.92236328125 20.0478515625)"/><use xlink:href="#d" transform="matrix(1,0,0,1,786.5613990255197,130.48983639315097) translate(0 19.589501953125)"/><use xlink:href="#i" transform="matrix(1,0,0,1,645,162.48983639315097) translate(21.51416015625 20.0478515625)"/><use xlink:href="#j" transform="matrix(1,0,0,1,786.5613990255197,162.48983639315097) translate(0 19.589501953125)"/><use xlink:href="#k" transform="matrix(1,0,0,1,645,194.48983639315097) translate(18.88623046875 20.0478515625)"/><use xlink:href="#j" transform="matrix(1,0,0,1,786.5613990255197,194.48983639315097) translate(0 19.589501953125)"/><use xlink:href="#l" transform="matrix(1,0,0,1,645,226.48983639315097) translate(22.0986328125 29.5478515625)"/><use xlink:href="#m" transform="matrix(1,0,0,1,786.5613990255197,226.48983639315097) translate(0 18.96212890625)"/><use xlink:href="#n" transform="matrix(1,0,0,1,786.5613990255197,226.48983639315097) translate(0 39.216875)"/><path d="M501 112h58M481 112h20m0 10v-20M579 112h-20m0-10v20M959 128h-21a8 8 0 0 0-8 8 8 8 0 0 1-8 8h-21.6M979 128h-20m0-10v20M881.22 144h20m-20 10l20-10m-20-10l20 10" stroke="#3a414a" fill="none"/><path d="M1370 48a8 8 0 0 1 8-8h264a8 8 0 0 1 8 8v267a8 8 0 0 1-8 8h-264a8 8 0 0 1-8-8z" fill="#fff"/><path d="M1370 80v33h280V80" fill="#fff"/><path d="M1370 112v33h280v-33" fill="#fff"/><path d="M1370 144v33h280v-33" fill="#fff"/><path d="M1370 176v33h280v-33" fill="#fff"/><path d="M1370 208v33h280v-33" fill="#fff"/><path d="M1370 240v33h280v-33" fill="#fff"/><path d="M1370 272v43a8 8 0 0 0 8 8h264a8 8 0 0 0 8-8v-43" fill="#fff"/><path d="M1370 80h280M1370 48a8 8 0 0 1 8-8h264a8 8 0 0 1 8 8v267a8 8 0 0 1-8 8h-264a8 8 0 0 1-8-8zM1426.34 80v243M1548.55 80v243" stroke="#000" stroke-width="2" fill="none"/><use xlink:href="#v" transform="matrix(1,0,0,1,1380,40.000001894403255) translate(96.6982421875 26.5478515625)"/><use xlink:href="#b" transform="matrix(1,0,0,1,1375,82.50000189440325) translate(11.705078125 20.0478515625)"/><use xlink:href="#c" transform="matrix(1,0,0,1,1431.3380435234592,82.50000189440325) translate(48.8095703125 20.0478515625)"/><use xlink:href="#d" transform="matrix(1,0,0,1,1553.54834748692,82.50000189440325) translate(0 19.589501953125)"/><use xlink:href="#s" transform="matrix(1,0,0,1,1375,114.50000189440325) translate(12.14013671875 20.0478515625)"/><use xlink:href="#u" transform="matrix(1,0,0,1,1431.3380435234592,114.50000189440325) translate(23.42236328125 20.0478515625)"/><use xlink:href="#d" transform="matrix(1,0,0,1,1553.54834748692,114.50000189440325) translate(0 19.589501953125)"/><use xlink:href="#p" transform="matrix(1,0,0,1,1431.3380435234592,146.50000189440325) translate(32.998046875 20.0478515625)"/><use xlink:href="#f" transform="matrix(1,0,0,1,1553.54834748692,146.50000189440325) translate(0 19.589501953125)"/><use xlink:href="#w" transform="matrix(1,0,0,1,1431.3380435234592,178.50000189440325) translate(34.89208984375 20.0478515625)"/><use xlink:href="#d" transform="matrix(1,0,0,1,1553.54834748692,178.50000189440325) translate(0 19.589501953125)"/><use xlink:href="#i" transform="matrix(1,0,0,1,1431.3380435234592,210.50000189440325) translate(12.01416015625 20.0478515625)"/><use xlink:href="#j" transform="matrix(1,0,0,1,1553.54834748692,210.50000189440325) translate(0 19.589501953125)"/><use xlink:href="#k" transform="matrix(1,0,0,1,1431.3380435234592,242.50000189440325) translate(9.38623046875 20.0478515625)"/><use xlink:href="#j" transform="matrix(1,0,0,1,1553.54834748692,242.50000189440325) translate(0 19.589501953125)"/><use xlink:href="#l" transform="matrix(1,0,0,1,1431.3380435234592,274.5000018944032) translate(12.5986328125 29.5478515625)"/><use xlink:href="#m" transform="matrix(1,0,0,1,1553.54834748692,274.5000018944032) translate(0 18.96212890625)"/><use xlink:href="#n" transform="matrix(1,0,0,1,1553.54834748692,274.5000018944032) translate(0 39.216875)"/><path d="M1281 128h68.6M1261 128h20m0 10v-20M1368.78 128h-20m20-10l-20 10m20 10l-20-10" stroke="#3a414a" fill="none"/><path d="M590 344a8 8 0 0 1 8-8h264a8 8 0 0 1 8 8v184a8 8 0 0 1-8 8H598a8 8 0 0 1-8-8z" fill="#fff"/><path d="M590 376v33h280v-33" fill="#fff"/><path d="M590 408v33h280v-33" fill="#fff"/><path d="M590 440v33h280v-33" fill="#fff"/><path d="M590 472v33h280v-33" fill="#fff"/><path d="M590 504v24a8 8 0 0 0 8 8h264a8 8 0 0 0 8-8v-24" fill="#fff"/><path d="M590 376h280M590 344a8 8 0 0 1 8-8h264a8 8 0 0 1 8 8v184a8 8 0 0 1-8 8H598a8 8 0 0 1-8-8zM634.73 376v160M756.1 376v160" stroke="#000" stroke-width="2" fill="none"/><use xlink:href="#x" transform="matrix(1,0,0,1,600,336) translate(90.1767578125 26.5478515625)"/><use xlink:href="#b" transform="matrix(1,0,0,1,595,378.5) translate(5.705078125 20.0478515625)"/><use xlink:href="#c" transform="matrix(1,0,0,1,639.7297115919383,378.5) translate(48.3095703125 20.0478515625)"/><use xlink:href="#d" transform="matrix(1,0,0,1,761.0903350742594,378.5) translate(0 19.589501953125)"/><use xlink:href="#s" transform="matrix(1,0,0,1,595,410.5) translate(6.14013671875 20.0478515625)"/><use xlink:href="#t" transform="matrix(1,0,0,1,639.7297115919383,410.5) translate(25.1943359375 20.0478515625)"/><use xlink:href="#d" transform="matrix(1,0,0,1,761.0903350742594,410.5) translate(0 19.589501953125)"/><use xlink:href="#y" transform="matrix(1,0,0,1,639.7297115919383,442.5) translate(11.509765625 20.0478515625)"/><use xlink:href="#d" transform="matrix(1,0,0,1,761.0903350742594,442.5) translate(0 19.589501953125)"/><use xlink:href="#i" transform="matrix(1,0,0,1,639.7297115919383,474.5) translate(11.51416015625 20.0478515625)"/><use xlink:href="#j" transform="matrix(1,0,0,1,761.0903350742594,474.5) translate(0 19.589501953125)"/><use xlink:href="#s" transform="matrix(1,0,0,1,595,506.5) translate(6.14013671875 20.0478515625)"/><use xlink:href="#z" transform="matrix(1,0,0,1,639.7297115919383,506.5) translate(4.31591796875 20.0478515625)"/><use xlink:href="#d" transform="matrix(1,0,0,1,761.0903350742594,506.5) translate(0 19.589501953125)"/><path d="M501 112h22a12 12 0 0 1 12 12v288a12 12 0 0 0 12 12h22.6M481 112h20m0 10v-20M588.78 424h-20m20-10l-20 10m20 10l-20-10" stroke="#3a414a" fill="none"/><path d="M1080 348a8 8 0 0 1 8-8h264a8 8 0 0 1 8 8v216a8 8 0 0 1-8 8h-264a8 8 0 0 1-8-8z" fill="#fff"/><path d="M1080 380v33h280v-33" fill="#fff"/><path d="M1080 412v33h280v-33" fill="#fff"/><path d="M1080 444v33h280v-33" fill="#fff"/><path d="M1080 476v33h280v-33" fill="#fff"/><path d="M1080 508v33h280v-33" fill="#fff"/><path d="M1080 540v24a8 8 0 0 0 8 8h264a8 8 0 0 0 8-8v-24" fill="#fff"/><path d="M1080 380h280M1080 348a8 8 0 0 1 8-8h264a8 8 0 0 1 8 8v216a8 8 0 0 1-8 8h-264a8 8 0 0 1-8-8zM1124.73 380v192M1246.1 380v192" stroke="#000" stroke-width="2" fill="none"/><use xlink:href="#A" transform="matrix(1,0,0,1,1090,340) translate(52.7353515625 26.5478515625)"/><use xlink:href="#b" transform="matrix(1,0,0,1,1085,382.5) translate(5.705078125 20.0478515625)"/><use xlink:href="#c" transform="matrix(1,0,0,1,1129.7297115919382,382.5) translate(48.3095703125 20.0478515625)"/><use xlink:href="#d" transform="matrix(1,0,0,1,1251.0903350742594,382.5) translate(0 19.589501953125)"/><use xlink:href="#s" transform="matrix(1,0,0,1,1085,414.5) translate(6.14013671875 20.0478515625)"/><use xlink:href="#B" transform="matrix(1,0,0,1,1129.7297115919382,414.5) translate(10.83740234375 20.0478515625)"/><use xlink:href="#d" transform="matrix(1,0,0,1,1251.0903350742594,414.5) translate(0 19.589501953125)"/><use xlink:href="#s" transform="matrix(1,0,0,1,1085,446.5) translate(6.14013671875 20.0478515625)"/><use xlink:href="#z" transform="matrix(1,0,0,1,1129.7297115919382,446.5) translate(4.31591796875 20.0478515625)"/><use xlink:href="#d" transform="matrix(1,0,0,1,1251.0903350742594,446.5) translate(0 19.589501953125)"/><use xlink:href="#w" transform="matrix(1,0,0,1,1129.7297115919382,478.5) translate(34.39208984375 20.0478515625)"/><use xlink:href="#d" transform="matrix(1,0,0,1,1251.0903350742594,478.5) translate(0 19.589501953125)"/><use xlink:href="#C" transform="matrix(1,0,0,1,1129.7297115919382,510.5) translate(21.494140625 20.0478515625)"/><use xlink:href="#d" transform="matrix(1,0,0,1,1251.0903350742594,510.5) translate(0 19.589501953125)"/><use xlink:href="#y" transform="matrix(1,0,0,1,1129.7297115919382,542.5) translate(11.509765625 20.0478515625)"/><use xlink:href="#d" transform="matrix(1,0,0,1,1251.0903350742594,542.5) translate(0 19.589501953125)"/><path d="M1510 344v72a12 12 0 0 1-12 12h-117.6M1510 324v20m-10 0h20M1361.22 428h20m-20 10l20-10m-20-10l20 10M891 392h72a12 12 0 0 1 12 12v44a12 12 0 0 0 12 12h72.6M871 392h20m0 10v-20M1078.78 460h-20m20-10l-20 10m20 10l-20-10" stroke="#3a414a" fill="none"/><path d="M580 648a8 8 0 0 1 8-8h294a8 8 0 0 1 8 8v216a8 8 0 0 1-8 8H588a8 8 0 0 1-8-8z" fill="#fff"/><path d="M580 680v33h310v-33" fill="#fff"/><path d="M580 712v33h310v-33" fill="#fff"/><path d="M580 744v33h310v-33" fill="#fff"/><path d="M580 776v33h310v-33" fill="#fff"/><path d="M580 808v33h310v-33" fill="#fff"/><path d="M580 840v24a8 8 0 0 0 8 8h294a8 8 0 0 0 8-8v-24" fill="#fff"/><path d="M580 680h310M580 648a8 8 0 0 1 8-8h294a8 8 0 0 1 8 8v216a8 8 0 0 1-8 8H588a8 8 0 0 1-8-8zM634.73 680v192M766.1 680v192" stroke="#000" stroke-width="2" fill="none"/><use xlink:href="#D" transform="matrix(1,0,0,1,590,640) translate(95.1572265625 26.5478515625)"/><use xlink:href="#b" transform="matrix(1,0,0,1,585,682.5) translate(10.705078125 20.0478515625)"/><use xlink:href="#c" transform="matrix(1,0,0,1,639.7297115919383,682.5) translate(53.3095703125 20.0478515625)"/><use xlink:href="#d" transform="matrix(1,0,0,1,771.0903350742594,682.5) translate(0 19.589501953125)"/><use xlink:href="#s" transform="matrix(1,0,0,1,585,714.5) translate(11.14013671875 20.0478515625)"/><use xlink:href="#E" transform="matrix(1,0,0,1,639.7297115919383,714.5) translate(8.916015625 20.0478515625)"/><use xlink:href="#d" transform="matrix(1,0,0,1,771.0903350742594,714.5) translate(0 19.589501953125)"/><use xlink:href="#s" transform="matrix(1,0,0,1,585,746.5) translate(11.14013671875 20.0478515625)"/><use xlink:href="#u" transform="matrix(1,0,0,1,639.7297115919383,746.5) translate(27.92236328125 20.0478515625)"/><use xlink:href="#d" transform="matrix(1,0,0,1,771.0903350742594,746.5) translate(0 19.589501953125)"/><use xlink:href="#F" transform="matrix(1,0,0,1,639.7297115919383,778.5) translate(29.08251953125 20.0478515625)"/><use xlink:href="#d" transform="matrix(1,0,0,1,771.0903350742594,778.5) translate(0 19.589501953125)"/><use xlink:href="#i" transform="matrix(1,0,0,1,639.7297115919383,810.5) translate(16.51416015625 20.0478515625)"/><use xlink:href="#j" transform="matrix(1,0,0,1,771.0903350742594,810.5) translate(0 19.589501953125)"/><use xlink:href="#s" transform="matrix(1,0,0,1,585,842.5) translate(11.14013671875 20.0478515625)"/><use xlink:href="#z" transform="matrix(1,0,0,1,639.7297115919383,842.5) translate(9.31591796875 20.0478515625)"/><use xlink:href="#d" transform="matrix(1,0,0,1,771.0903350742594,842.5) translate(0 19.589501953125)"/><path d="M340 360v355.82a12 12 0 0 0 12 12h207.6M340 340v20m-10 0h20M578.78 727.82h-20m20-10l-20 10m20 10l-20-10M730 557v8a12 12 0 0 0 12 12h177a12 12 0 0 1 12 12v255a12 12 0 0 1-12 12h-8.6M730 537v20m-10 0h20M891.22 856h20m-20 10l20-10m-20-10l20 10" stroke="#3a414a" fill="none"/><path d="M1120 312v8a12 12 0 0 1-12 12h-86a12 12 0 0 0-12 12v404.03a12 12 0 0 1-12 12h-87.6M1120 292v20m-10 0h20M891.22 760.03h20m-20 10l20-10m-20-10l20 10" stroke="#3a414a" fill="none"/><defs><path fill="#3a414a" d="M763 24c-353 0-583-224-583-531v-983h190v968c0 214 149 370 393 370 243 0 391-156 391-370v-968h190v983c0 307-230 531-581 531" id="G"/><path fill="#3a414a" d="M538 24C308 24 148-78 108-271l171-41c32 123 123 178 257 178 156 0 256-77 256-169 0-77-54-128-164-154l-186-44c-203-48-300-148-300-305 0-192 176-326 414-326 230 0 351 112 402 269l-163 42c-31-80-94-158-238-158-133 0-233 69-233 162 0 83 57 129 188 160l169 40c203 48 298 149 298 302 0 196-179 339-441 339" id="H"/><path fill="#3a414a" d="M628 24c-324 0-524-230-524-574 0-343 198-582 503-582 237 0 487 146 487 559v75H286c9 234 145 362 343 362 132 0 231-58 273-172l174 48C1024-91 857 24 628 24zM287-650h624c-17-190-120-322-304-322-192 0-309 151-320 322" id="I"/><path fill="#3a414a" d="M158 0v-1118h174v172h12c41-113 157-188 290-188 26 0 70 2 91 3v181c-11-2-60-10-108-10-161 0-279 109-279 260V0H158" id="J"/><g id="a"><use transform="matrix(0.0087890625,0,0,0.0087890625,0,0)" xlink:href="#G"/><use transform="matrix(0.0087890625,0,0,0.0087890625,13.39453125,0)" xlink:href="#H"/><use transform="matrix(0.0087890625,0,0,0.0087890625,22.8955078125,0)" xlink:href="#I"/><use transform="matrix(0.0087890625,0,0,0.0087890625,33.3896484375,0)" xlink:href="#J"/></g><path fill="#3a414a" d="M180 0v-1490h510c348 0 508 209 508 474 0 266-160 477-507 477H370V0H180zm190-706h312c236 0 327-133 327-310 0-176-91-307-329-307H370v617" id="K"/><path fill="#3a414a" d="M180 0v-1490h190c0 262 1 526-3 784 217-279 467-523 702-784h249L716-845 1319 0h-225L585-716 370-489V0H180" id="L"/><g id="b"><use transform="matrix(0.0087890625,0,0,0.0087890625,0,0)" xlink:href="#K"/><use transform="matrix(0.0087890625,0,0,0.0087890625,11.49609375,0)" xlink:href="#L"/></g><path fill="#3a414a" d="M158 0v-1118h180V0H158zm91-1301c-68 0-125-53-125-119s57-119 125-119c69 0 126 53 126 119s-57 119-126 119" id="M"/><path fill="#3a414a" d="M577 24c-279 0-473-224-473-580 0-354 195-576 474-576 218 0 287 134 324 193h14v-551h180V0H922v-173h-20C865-111 790 24 577 24zm27-161c203 0 314-172 314-421 0-247-108-413-314-413-212 0-317 181-317 413 0 235 108 421 317 421" id="N"/><g id="c"><use transform="matrix(0.0087890625,0,0,0.0087890625,0,0)" xlink:href="#M"/><use transform="matrix(0.0087890625,0,0,0.0087890625,4.359375,0)" xlink:href="#N"/></g><path d="M338-670V0H158v-1118h173l1 207c72-158 192-221 342-221 226 0 378 139 378 422V0H872v-695c0-172-96-275-252-275-161 0-282 109-282 300" id="O"/><path d="M537 14c-226 0-379-139-379-422v-710h180v695c0 172 97 275 253 275 160 0 281-109 281-300v-670h181V0H879v-209C806-46 684 14 537 14" id="P"/><path d="M158 0v-1118h175l1 205c55-151 181-225 313-225 147 0 245 90 285 228 53-141 190-228 352-228 194 0 352 125 352 384V0h-181v-749c0-161-105-225-225-225-151 0-243 103-243 244V0H807v-767c0-124-93-207-219-207-131 0-250 92-250 270V0H158" id="Q"/><path d="M677 24c-213 0-288-135-325-197h-20V0H158v-1490h180v551h14c37-59 106-193 324-193 279 0 474 222 474 576 0 356-194 580-473 580zm-27-161c209 0 317-186 317-421 0-232-105-413-317-413-206 0-314 166-314 413 0 249 111 421 314 421" id="R"/><path d="M628 24c-324 0-524-230-524-574 0-343 198-582 503-582 237 0 487 146 487 559v75H286c9 234 145 362 343 362 132 0 231-58 273-172l174 48C1024-91 857 24 628 24zM287-650h624c-17-190-120-322-304-322-192 0-309 151-320 322" id="S"/><path d="M158 0v-1118h174v172h12c41-113 157-188 290-188 26 0 70 2 91 3v181c-11-2-60-10-108-10-161 0-279 109-279 260V0H158" id="T"/><g id="d"><use transform="matrix(0.008173828125000001,0,0,0.008173828125000001,0,0)" xlink:href="#O"/><use transform="matrix(0.008173828125000001,0,0,0.008173828125000001,9.89033203125,0)" xlink:href="#P"/><use transform="matrix(0.008173828125000001,0,0,0.008173828125000001,19.788837890625004,0)" xlink:href="#Q"/><use transform="matrix(0.008173828125000001,0,0,0.008173828125000001,34.452685546875,0)" xlink:href="#R"/><use transform="matrix(0.008173828125000001,0,0,0.008173828125000001,44.702666015625006,0)" xlink:href="#S"/><use transform="matrix(0.008173828125000001,0,0,0.008173828125000001,54.462216796875005,0)" xlink:href="#T"/></g><path fill="#3a414a" d="M158 0v-1118h175l1 205c55-151 181-225 313-225 147 0 245 90 285 228 53-141 190-228 352-228 194 0 352 125 352 384V0h-181v-749c0-161-105-225-225-225-151 0-243 103-243 244V0H807v-767c0-124-93-207-219-207-131 0-250 92-250 270V0H158" id="U"/><path fill="#3a414a" d="M471 26C259 26 90-98 90-318c0-256 228-303 435-329 202-27 287-16 287-108 0-139-79-219-234-219-161 0-248 86-283 164l-173-57c86-203 278-265 451-265 150 0 419 46 419 395V0H815v-152h-12C765-73 660 26 471 26zm31-159c199 0 310-134 310-271v-155c-30 35-226 55-295 64-131 17-246 59-246 186 0 116 97 176 231 176" id="V"/><path fill="#3a414a" d="M338-1490V0H158v-1490h180" id="W"/><g id="e"><use transform="matrix(0.0087890625,0,0,0.0087890625,0,0)" xlink:href="#I"/><use transform="matrix(0.0087890625,0,0,0.0087890625,10.494140625,0)" xlink:href="#U"/><use transform="matrix(0.0087890625,0,0,0.0087890625,26.26171875,0)" xlink:href="#V"/><use transform="matrix(0.0087890625,0,0,0.0087890625,36.369140625,0)" xlink:href="#M"/><use transform="matrix(0.0087890625,0,0,0.0087890625,40.728515625,0)" xlink:href="#W"/></g><path d="M538 24C308 24 148-78 108-271l171-41c32 123 123 178 257 178 156 0 256-77 256-169 0-77-54-128-164-154l-186-44c-203-48-300-148-300-305 0-192 176-326 414-326 230 0 351 112 402 269l-163 42c-31-80-94-158-238-158-133 0-233 69-233 162 0 83 57 129 188 160l169 40c203 48 298 149 298 302 0 196-179 339-441 339" id="X"/><path d="M598-1118v154H368v674c0 100 37 144 132 144 23 0 62-6 92-12L629-6c-37 13-88 20-134 20-193 0-307-107-307-290v-688H20v-154h168v-266h180v266h230" id="Y"/><path d="M158 0v-1118h180V0H158zm91-1301c-68 0-125-53-125-119s57-119 125-119c69 0 126 53 126 119s-57 119-126 119" id="Z"/><path d="M611 442c-248 0-391-105-460-228l146-94c47 65 117 165 314 165 178 0 307-82 307-266v-224h-17C863-141 792-18 576-18c-268 0-472-195-472-546 0-346 197-568 476-568 216 0 288 133 326 193h17v-179h175V29c0 289-215 413-487 413zm-5-620c203 0 314-146 314-390 0-237-108-403-314-403-213 0-319 180-319 403 0 230 109 390 319 390" id="aa"/><g id="f"><use transform="matrix(0.008173828125000001,0,0,0.008173828125000001,0,0)" xlink:href="#X"/><use transform="matrix(0.008173828125000001,0,0,0.008173828125000001,8.835908203125001,0)" xlink:href="#Y"/><use transform="matrix(0.008173828125000001,0,0,0.008173828125000001,14.312373046875003,0)" xlink:href="#T"/><use transform="matrix(0.008173828125000001,0,0,0.008173828125000001,20.875957031250003,0)" xlink:href="#Z"/><use transform="matrix(0.008173828125000001,0,0,0.008173828125000001,24.930175781250004,0)" xlink:href="#O"/><use transform="matrix(0.008173828125000001,0,0,0.008173828125000001,34.820507812500004,0)" xlink:href="#aa"/></g><path fill="#3a414a" d="M537 14c-226 0-379-139-379-422v-710h180v695c0 172 97 275 253 275 160 0 281-109 281-300v-670h181V0H879v-209C806-46 684 14 537 14" id="ab"/><path fill="#3a414a" d="M338-670V0H158v-1118h173l1 207c72-158 192-221 342-221 226 0 378 139 378 422V0H872v-695c0-172-96-275-252-275-161 0-282 109-282 300" id="ac"/><g id="g"><use transform="matrix(0.0087890625,0,0,0.0087890625,0,0)" xlink:href="#ab"/><use transform="matrix(0.0087890625,0,0,0.0087890625,10.6435546875,0)" xlink:href="#H"/><use transform="matrix(0.0087890625,0,0,0.0087890625,20.14453125,0)" xlink:href="#I"/><use transform="matrix(0.0087890625,0,0,0.0087890625,30.638671875,0)" xlink:href="#J"/><use transform="matrix(0.0087890625,0,0,0.0087890625,37.6962890625,0)" xlink:href="#ac"/><use transform="matrix(0.0087890625,0,0,0.0087890625,48.3310546875,0)" xlink:href="#V"/><use transform="matrix(0.0087890625,0,0,0.0087890625,58.4384765625,0)" xlink:href="#U"/><use transform="matrix(0.0087890625,0,0,0.0087890625,74.2060546875,0)" xlink:href="#I"/></g><path fill="#3a414a" d="M158 418v-1536h174v179h20c37-59 106-193 324-193 279 0 474 222 474 576 0 356-194 580-473 580-213 0-288-135-325-197h-14v591H158zm492-555c209 0 317-186 317-421 0-232-105-413-317-413-206 0-314 166-314 413 0 249 111 421 314 421" id="ad"/><path fill="#3a414a" d="M409 0L70-1118h191c89 329 165 560 243 925 75-353 154-601 240-925h192c85 325 161 564 235 922 77-354 157-598 244-922h191L1267 0h-179c-86-307-176-590-250-913C763-588 675-308 588 0H409" id="ae"/><path fill="#3a414a" d="M613 24c-304 0-509-231-509-576 0-350 205-580 509-580 305 0 511 230 511 580 0 345-206 576-511 576zm0-161c226 0 329-195 329-415 0-222-103-419-329-419-223 0-326 196-326 419 0 220 103 415 326 415" id="af"/><g id="h"><use transform="matrix(0.0087890625,0,0,0.0087890625,0,0)" xlink:href="#ad"/><use transform="matrix(0.0087890625,0,0,0.0087890625,11.197265625,0)" xlink:href="#V"/><use transform="matrix(0.0087890625,0,0,0.0087890625,21.3046875,0)" xlink:href="#H"/><use transform="matrix(0.0087890625,0,0,0.0087890625,30.8056640625,0)" xlink:href="#H"/><use transform="matrix(0.0087890625,0,0,0.0087890625,40.306640625,0)" xlink:href="#ae"/><use transform="matrix(0.0087890625,0,0,0.0087890625,54.7119140625,0)" xlink:href="#af"/><use transform="matrix(0.0087890625,0,0,0.0087890625,65.5048828125,0)" xlink:href="#J"/><use transform="matrix(0.0087890625,0,0,0.0087890625,71.982421875,0)" xlink:href="#N"/></g><path fill="#3a414a" d="M613 24c-304 0-509-231-509-576 0-350 205-580 509-580 216 0 392 114 453 309l-173 49c-33-115-133-197-280-197-223 0-326 196-326 419 0 220 103 415 326 415 150 0 252-85 285-206l172 49C1010-95 832 24 613 24" id="ag"/><path fill="#3a414a" d="M598-1118v154H368v674c0 100 37 144 132 144 23 0 62-6 92-12L629-6c-37 13-88 20-134 20-193 0-307-107-307-290v-688H20v-154h168v-266h180v266h230" id="ah"/><path fill="#3a414a" d="M934 0v166H0V0h934" id="ai"/><g id="i"><use transform="matrix(0.0087890625,0,0,0.0087890625,0,0)" xlink:href="#ag"/><use transform="matrix(0.0087890625,0,0,0.0087890625,10.283203125,0)" xlink:href="#J"/><use transform="matrix(0.0087890625,0,0,0.0087890625,16.7607421875,0)" xlink:href="#I"/><use transform="matrix(0.0087890625,0,0,0.0087890625,27.4306640625,0)" xlink:href="#V"/><use transform="matrix(0.0087890625,0,0,0.0087890625,37.5380859375,0)" xlink:href="#ah"/><use transform="matrix(0.0087890625,0,0,0.0087890625,43.2509765625,0)" xlink:href="#I"/><use transform="matrix(0.0087890625,0,0,0.0087890625,53.7451171875,0)" xlink:href="#N"/><use transform="matrix(0.0087890625,0,0,0.0087890625,64.7666015625,0)" xlink:href="#ai"/><use transform="matrix(0.0087890625,0,0,0.0087890625,72.9755859375,0)" xlink:href="#V"/><use transform="matrix(0.0087890625,0,0,0.0087890625,83.0830078125,0)" xlink:href="#ah"/></g><path d="M645 0H180v-1490h484c435 0 692 280 692 742 0 466-257 748-711 748zM370-168h263c363 0 539-218 539-580 0-358-176-574-521-574H370v1154" id="aj"/><path d="M52 0l541-1490h220L1361 0h-200l-149-416H398L254 0H52zm404-582h497c-103-290-145-390-251-756-108 377-145 460-246 756" id="ak"/><path d="M98-1322v-168h1126v168H757V0H567v-1322H98" id="al"/><path d="M180 0v-1490h908v168H370v486h669v168H370v500h727V0H180" id="am"/><g id="j"><use transform="matrix(0.008173828125000001,0,0,0.008173828125000001,0,0)" xlink:href="#aj"/><use transform="matrix(0.008173828125000001,0,0,0.008173828125000001,11.508750000000001,0)" xlink:href="#ak"/><use transform="matrix(0.008173828125000001,0,0,0.008173828125000001,21.636123046875003,0)" xlink:href="#al"/><use transform="matrix(0.008173828125000001,0,0,0.008173828125000001,32.441923828125006,0)" xlink:href="#am"/></g><g id="k"><use transform="matrix(0.0087890625,0,0,0.0087890625,0,0)" xlink:href="#ab"/><use transform="matrix(0.0087890625,0,0,0.0087890625,10.6435546875,0)" xlink:href="#ad"/><use transform="matrix(0.0087890625,0,0,0.0087890625,21.6650390625,0)" xlink:href="#N"/><use transform="matrix(0.0087890625,0,0,0.0087890625,32.6865234375,0)" xlink:href="#V"/><use transform="matrix(0.0087890625,0,0,0.0087890625,42.7939453125,0)" xlink:href="#ah"/><use transform="matrix(0.0087890625,0,0,0.0087890625,48.5068359375,0)" xlink:href="#I"/><use transform="matrix(0.0087890625,0,0,0.0087890625,59.0009765625,0)" xlink:href="#N"/><use transform="matrix(0.0087890625,0,0,0.0087890625,70.0224609375,0)" xlink:href="#ai"/><use transform="matrix(0.0087890625,0,0,0.0087890625,78.2314453125,0)" xlink:href="#V"/><use transform="matrix(0.0087890625,0,0,0.0087890625,88.3388671875,0)" xlink:href="#ah"/></g><g id="l"><use transform="matrix(0.0087890625,0,0,0.0087890625,0,0)" xlink:href="#N"/><use transform="matrix(0.0087890625,0,0,0.0087890625,11.021484375,0)" xlink:href="#I"/><use transform="matrix(0.0087890625,0,0,0.0087890625,21.515625,0)" xlink:href="#W"/><use transform="matrix(0.0087890625,0,0,0.0087890625,25.875,0)" xlink:href="#I"/><use transform="matrix(0.0087890625,0,0,0.0087890625,36.369140625,0)" xlink:href="#ah"/><use transform="matrix(0.0087890625,0,0,0.0087890625,42.08203125,0)" xlink:href="#I"/><use transform="matrix(0.0087890625,0,0,0.0087890625,52.576171875,0)" xlink:href="#N"/><use transform="matrix(0.0087890625,0,0,0.0087890625,63.59765625,0)" xlink:href="#ai"/><use transform="matrix(0.0087890625,0,0,0.0087890625,71.806640625,0)" xlink:href="#V"/><use transform="matrix(0.0087890625,0,0,0.0087890625,81.9140625,0)" xlink:href="#ah"/></g><g id="m"><use transform="matrix(0.008173828125000001,0,0,0.008173828125000001,0,0)" xlink:href="#aj"/><use transform="matrix(0.008173828125000001,0,0,0.008173828125000001,11.508750000000001,0)" xlink:href="#ak"/><use transform="matrix(0.008173828125000001,0,0,0.008173828125000001,21.636123046875003,0)" xlink:href="#al"/><use transform="matrix(0.008173828125000001,0,0,0.008173828125000001,32.441923828125006,0)" xlink:href="#am"/></g><path d="M180 0v-1490h224l606 953c40 63 108 177 176 312-27-437-7-821-13-1265h190V0h-226C860-448 622-778 356-1262c27 476 11 792 15 1262H180" id="an"/><path d="M763 24c-353 0-583-224-583-531v-983h190v968c0 214 149 370 393 370 243 0 391-156 391-370v-968h190v983c0 307-230 531-581 531" id="ao"/><path d="M180 0v-1490h190v1322h690V0H180" id="ap"/><path d="M180 0v-1490h528c311 0 458 177 458 395 0 191-114 278-244 313v14c139 9 302 137 302 371 0 225-148 397-499 397H180zm190-168h350c232 0 321-102 321-231 0-149-120-277-311-277H370v508zm0-668h328c160 0 286-101 286-255 0-129-87-231-280-231H370v486" id="aq"/><g id="n"><use transform="matrix(0.008173828125000001,0,0,0.008173828125000001,0,0)" xlink:href="#an"/><use transform="matrix(0.008173828125000001,0,0,0.008173828125000001,12.612216796875002,0)" xlink:href="#ao"/><use transform="matrix(0.008173828125000001,0,0,0.008173828125000001,25.069130859375,0)" xlink:href="#ap"/><use transform="matrix(0.008173828125000001,0,0,0.008173828125000001,34.534423828125,0)" xlink:href="#ap"/><use transform="matrix(0.008173828125000001,0,0,0.008173828125000001,43.999716796875,0)" xlink:href="#ak"/><use transform="matrix(0.008173828125000001,0,0,0.008173828125000001,55.549335937500004,0)" xlink:href="#aq"/><use transform="matrix(0.008173828125000001,0,0,0.008173828125000001,66.502265625,0)" xlink:href="#ap"/><use transform="matrix(0.008173828125000001,0,0,0.008173828125000001,75.96755859375001,0)" xlink:href="#am"/></g><path fill="#3a414a" d="M657 26c-323 0-524-166-541-416h195c15 169 171 246 346 246 202 0 356-106 356-265 5-203-294-238-475-293-239-73-380-191-380-389 0-252 224-419 512-419 294 0 499 171 508 396H992c-17-145-151-228-328-228-193 0-321 102-321 242 0 156 175 211 284 241l149 41c160 44 422 134 422 412 0 244-197 432-541 432" id="ar"/><path fill="#3a414a" d="M338-670V0H158v-1490h180v566c73-149 190-208 336-208 226 0 379 139 379 422V0H872v-695c0-172-96-275-252-275-161 0-282 109-282 300" id="as"/><g id="o"><use transform="matrix(0.0087890625,0,0,0.0087890625,0,0)" xlink:href="#ar"/><use transform="matrix(0.0087890625,0,0,0.0087890625,11.548828125,0)" xlink:href="#as"/><use transform="matrix(0.0087890625,0,0,0.0087890625,22.1923828125,0)" xlink:href="#af"/><use transform="matrix(0.0087890625,0,0,0.0087890625,32.9853515625,0)" xlink:href="#ad"/></g><g id="p"><use transform="matrix(0.0087890625,0,0,0.0087890625,0,0)" xlink:href="#ac"/><use transform="matrix(0.0087890625,0,0,0.0087890625,10.634765625,0)" xlink:href="#V"/><use transform="matrix(0.0087890625,0,0,0.0087890625,20.7421875,0)" xlink:href="#U"/><use transform="matrix(0.0087890625,0,0,0.0087890625,36.509765625,0)" xlink:href="#I"/></g><path fill="#3a414a" d="M180 0v-1490h908v168H370v486h669v168H370v500h727V0H180" id="at"/><path fill="#3a414a" d="M140 405l46-156c120 36 205 19 263-150l32-93L54-1118h197c107 313 237 620 324 950 87-331 219-637 326-950h196L606 167c-68 178-176 259-334 259-64 0-113-12-132-21" id="au"/><g id="q"><use transform="matrix(0.0087890625,0,0,0.0087890625,0,0)" xlink:href="#at"/><use transform="matrix(0.0087890625,0,0,0.0087890625,10.8193359375,0)" xlink:href="#U"/><use transform="matrix(0.0087890625,0,0,0.0087890625,26.5869140625,0)" xlink:href="#ad"/><use transform="matrix(0.0087890625,0,0,0.0087890625,37.6083984375,0)" xlink:href="#W"/><use transform="matrix(0.0087890625,0,0,0.0087890625,41.9677734375,0)" xlink:href="#af"/><use transform="matrix(0.0087890625,0,0,0.0087890625,52.4091796875,0)" xlink:href="#au"/><use transform="matrix(0.0087890625,0,0,0.0087890625,62.173828125,0)" xlink:href="#I"/><use transform="matrix(0.0087890625,0,0,0.0087890625,72.66796875,0)" xlink:href="#I"/></g><path fill="#3a414a" d="M678-1118v154H420V0H240v-964H20v-154h220v-149c0-194 155-293 318-293 85 0 141 18 168 30l-50 154c-19-6-47-17-97-17-111 0-159 58-159 166v109h258" id="av"/><g id="r"><use transform="matrix(0.0087890625,0,0,0.0087890625,0,0)" xlink:href="#av"/><use transform="matrix(0.0087890625,0,0,0.0087890625,6.662109375,0)" xlink:href="#ab"/><use transform="matrix(0.0087890625,0,0,0.0087890625,17.3056640625,0)" xlink:href="#W"/><use transform="matrix(0.0087890625,0,0,0.0087890625,21.6650390625,0)" xlink:href="#W"/><use transform="matrix(0.0087890625,0,0,0.0087890625,26.0244140625,0)" xlink:href="#ai"/><use transform="matrix(0.0087890625,0,0,0.0087890625,34.83984375,0)" xlink:href="#ac"/><use transform="matrix(0.0087890625,0,0,0.0087890625,45.474609375,0)" xlink:href="#V"/><use transform="matrix(0.0087890625,0,0,0.0087890625,55.58203125,0)" xlink:href="#U"/><use transform="matrix(0.0087890625,0,0,0.0087890625,71.349609375,0)" xlink:href="#I"/></g><path fill="#3a414a" d="M180 0v-1490h901v168H370v510h643v168H370V0H180" id="aw"/><g id="s"><use transform="matrix(0.0087890625,0,0,0.0087890625,0,0)" xlink:href="#aw"/><use transform="matrix(0.0087890625,0,0,0.0087890625,10.6259765625,0)" xlink:href="#L"/></g><g id="t"><use transform="matrix(0.0087890625,0,0,0.0087890625,0,0)" xlink:href="#ab"/><use transform="matrix(0.0087890625,0,0,0.0087890625,10.6435546875,0)" xlink:href="#H"/><use transform="matrix(0.0087890625,0,0,0.0087890625,20.14453125,0)" xlink:href="#I"/><use transform="matrix(0.0087890625,0,0,0.0087890625,30.638671875,0)" xlink:href="#J"/><use transform="matrix(0.0087890625,0,0,0.0087890625,37.4150390625,0)" xlink:href="#ai"/><use transform="matrix(0.0087890625,0,0,0.0087890625,46.23046875,0)" xlink:href="#M"/><use transform="matrix(0.0087890625,0,0,0.0087890625,50.58984375,0)" xlink:href="#N"/></g><g id="u"><use transform="matrix(0.0087890625,0,0,0.0087890625,0,0)" xlink:href="#H"/><use transform="matrix(0.0087890625,0,0,0.0087890625,9.5009765625,0)" xlink:href="#as"/><use transform="matrix(0.0087890625,0,0,0.0087890625,20.14453125,0)" xlink:href="#af"/><use transform="matrix(0.0087890625,0,0,0.0087890625,30.9375,0)" xlink:href="#ad"/><use transform="matrix(0.0087890625,0,0,0.0087890625,41.958984375,0)" xlink:href="#ai"/><use transform="matrix(0.0087890625,0,0,0.0087890625,50.7744140625,0)" xlink:href="#M"/><use transform="matrix(0.0087890625,0,0,0.0087890625,55.1337890625,0)" xlink:href="#N"/></g><g id="v"><use transform="matrix(0.0087890625,0,0,0.0087890625,0,0)" xlink:href="#K"/><use transform="matrix(0.0087890625,0,0,0.0087890625,11.49609375,0)" xlink:href="#J"/><use transform="matrix(0.0087890625,0,0,0.0087890625,17.9736328125,0)" xlink:href="#af"/><use transform="matrix(0.0087890625,0,0,0.0087890625,28.7666015625,0)" xlink:href="#N"/><use transform="matrix(0.0087890625,0,0,0.0087890625,39.7880859375,0)" xlink:href="#ab"/><use transform="matrix(0.0087890625,0,0,0.0087890625,50.431640625,0)" xlink:href="#ag"/><use transform="matrix(0.0087890625,0,0,0.0087890625,60.71484375,0)" xlink:href="#ah"/></g><g id="w"><use transform="matrix(0.0087890625,0,0,0.0087890625,0,0)" xlink:href="#ad"/><use transform="matrix(0.0087890625,0,0,0.0087890625,11.021484375,0)" xlink:href="#J"/><use transform="matrix(0.0087890625,0,0,0.0087890625,18.0791015625,0)" xlink:href="#M"/><use transform="matrix(0.0087890625,0,0,0.0087890625,22.4384765625,0)" xlink:href="#ag"/><use transform="matrix(0.0087890625,0,0,0.0087890625,32.7216796875,0)" xlink:href="#I"/></g><g id="x"><use transform="matrix(0.0087890625,0,0,0.0087890625,0,0)" xlink:href="#K"/><use transform="matrix(0.0087890625,0,0,0.0087890625,11.49609375,0)" xlink:href="#ab"/><use transform="matrix(0.0087890625,0,0,0.0087890625,22.1396484375,0)" xlink:href="#J"/><use transform="matrix(0.0087890625,0,0,0.0087890625,28.6171875,0)" xlink:href="#ag"/><use transform="matrix(0.0087890625,0,0,0.0087890625,38.900390625,0)" xlink:href="#as"/><use transform="matrix(0.0087890625,0,0,0.0087890625,49.5439453125,0)" xlink:href="#V"/><use transform="matrix(0.0087890625,0,0,0.0087890625,59.6513671875,0)" xlink:href="#H"/><use transform="matrix(0.0087890625,0,0,0.0087890625,69.15234375,0)" xlink:href="#I"/></g><g id="y"><use transform="matrix(0.0087890625,0,0,0.0087890625,0,0)" xlink:href="#ah"/><use transform="matrix(0.0087890625,0,0,0.0087890625,5.712890625,0)" xlink:href="#af"/><use transform="matrix(0.0087890625,0,0,0.0087890625,16.505859375,0)" xlink:href="#ah"/><use transform="matrix(0.0087890625,0,0,0.0087890625,22.482421875,0)" xlink:href="#V"/><use transform="matrix(0.0087890625,0,0,0.0087890625,32.58984375,0)" xlink:href="#W"/><use transform="matrix(0.0087890625,0,0,0.0087890625,36.94921875,0)" xlink:href="#ai"/><use transform="matrix(0.0087890625,0,0,0.0087890625,45.7646484375,0)" xlink:href="#ad"/><use transform="matrix(0.0087890625,0,0,0.0087890625,56.7861328125,0)" xlink:href="#J"/><use transform="matrix(0.0087890625,0,0,0.0087890625,63.84375,0)" xlink:href="#M"/><use transform="matrix(0.0087890625,0,0,0.0087890625,68.203125,0)" xlink:href="#ag"/><use transform="matrix(0.0087890625,0,0,0.0087890625,78.486328125,0)" xlink:href="#I"/></g><g id="z"><use transform="matrix(0.0087890625,0,0,0.0087890625,0,0)" xlink:href="#ad"/><use transform="matrix(0.0087890625,0,0,0.0087890625,11.021484375,0)" xlink:href="#ab"/><use transform="matrix(0.0087890625,0,0,0.0087890625,21.6650390625,0)" xlink:href="#J"/><use transform="matrix(0.0087890625,0,0,0.0087890625,28.142578125,0)" xlink:href="#ag"/><use transform="matrix(0.0087890625,0,0,0.0087890625,38.42578125,0)" xlink:href="#as"/><use transform="matrix(0.0087890625,0,0,0.0087890625,49.0693359375,0)" xlink:href="#V"/><use transform="matrix(0.0087890625,0,0,0.0087890625,59.1767578125,0)" xlink:href="#H"/><use transform="matrix(0.0087890625,0,0,0.0087890625,68.677734375,0)" xlink:href="#I"/><use transform="matrix(0.0087890625,0,0,0.0087890625,79.171875,0)" xlink:href="#ai"/><use transform="matrix(0.0087890625,0,0,0.0087890625,87.9873046875,0)" xlink:href="#M"/><use transform="matrix(0.0087890625,0,0,0.0087890625,92.3466796875,0)" xlink:href="#N"/></g><path fill="#3a414a" d="M798-719v166H144v-166h654" id="ax"/><g id="A"><use transform="matrix(0.0087890625,0,0,0.0087890625,0,0)" xlink:href="#K"/><use transform="matrix(0.0087890625,0,0,0.0087890625,11.49609375,0)" xlink:href="#ab"/><use transform="matrix(0.0087890625,0,0,0.0087890625,22.1396484375,0)" xlink:href="#J"/><use transform="matrix(0.0087890625,0,0,0.0087890625,28.6171875,0)" xlink:href="#ag"/><use transform="matrix(0.0087890625,0,0,0.0087890625,38.900390625,0)" xlink:href="#as"/><use transform="matrix(0.0087890625,0,0,0.0087890625,49.5439453125,0)" xlink:href="#V"/><use transform="matrix(0.0087890625,0,0,0.0087890625,59.6513671875,0)" xlink:href="#H"/><use transform="matrix(0.0087890625,0,0,0.0087890625,69.15234375,0)" xlink:href="#I"/><use transform="matrix(0.0087890625,0,0,0.0087890625,79.646484375,0)" xlink:href="#ax"/><use transform="matrix(0.0087890625,0,0,0.0087890625,87.92578125,0)" xlink:href="#K"/><use transform="matrix(0.0087890625,0,0,0.0087890625,99.421875,0)" xlink:href="#J"/><use transform="matrix(0.0087890625,0,0,0.0087890625,105.8994140625,0)" xlink:href="#af"/><use transform="matrix(0.0087890625,0,0,0.0087890625,116.6923828125,0)" xlink:href="#N"/><use transform="matrix(0.0087890625,0,0,0.0087890625,127.7138671875,0)" xlink:href="#ab"/><use transform="matrix(0.0087890625,0,0,0.0087890625,138.357421875,0)" xlink:href="#ag"/><use transform="matrix(0.0087890625,0,0,0.0087890625,148.640625,0)" xlink:href="#ah"/></g><g id="B"><use transform="matrix(0.0087890625,0,0,0.0087890625,0,0)" xlink:href="#ad"/><use transform="matrix(0.0087890625,0,0,0.0087890625,11.021484375,0)" xlink:href="#J"/><use transform="matrix(0.0087890625,0,0,0.0087890625,17.4990234375,0)" xlink:href="#af"/><use transform="matrix(0.0087890625,0,0,0.0087890625,28.2919921875,0)" xlink:href="#N"/><use transform="matrix(0.0087890625,0,0,0.0087890625,39.3134765625,0)" xlink:href="#ab"/><use transform="matrix(0.0087890625,0,0,0.0087890625,49.95703125,0)" xlink:href="#ag"/><use transform="matrix(0.0087890625,0,0,0.0087890625,60.240234375,0)" xlink:href="#ah"/><use transform="matrix(0.0087890625,0,0,0.0087890625,66.12890625,0)" xlink:href="#ai"/><use transform="matrix(0.0087890625,0,0,0.0087890625,74.9443359375,0)" xlink:href="#M"/><use transform="matrix(0.0087890625,0,0,0.0087890625,79.3037109375,0)" xlink:href="#N"/></g><path fill="#3a414a" d="M1096 418H916v-591h-14C865-111 790 24 577 24c-279 0-473-224-473-580 0-354 195-576 474-576 218 0 287 134 324 193h20v-179h174V418zM604-137c203 0 314-172 314-421 0-247-108-413-314-413-212 0-317 181-317 413 0 235 108 421 317 421" id="ay"/><g id="C"><use transform="matrix(0.0087890625,0,0,0.0087890625,0,0)" xlink:href="#ay"/><use transform="matrix(0.0087890625,0,0,0.0087890625,11.021484375,0)" xlink:href="#ab"/><use transform="matrix(0.0087890625,0,0,0.0087890625,21.6650390625,0)" xlink:href="#V"/><use transform="matrix(0.0087890625,0,0,0.0087890625,31.7724609375,0)" xlink:href="#ac"/><use transform="matrix(0.0087890625,0,0,0.0087890625,42.4072265625,0)" xlink:href="#ah"/><use transform="matrix(0.0087890625,0,0,0.0087890625,48.2958984375,0)" xlink:href="#M"/><use transform="matrix(0.0087890625,0,0,0.0087890625,52.6552734375,0)" xlink:href="#ah"/><use transform="matrix(0.0087890625,0,0,0.0087890625,58.8955078125,0)" xlink:href="#au"/></g><path fill="#3a414a" d="M98-1322v-168h1126v168H757V0H567v-1322H98" id="az"/><g id="D"><use transform="matrix(0.0087890625,0,0,0.0087890625,0,0)" xlink:href="#az"/><use transform="matrix(0.0087890625,0,0,0.0087890625,10.599609375,0)" xlink:href="#J"/><use transform="matrix(0.0087890625,0,0,0.0087890625,17.3759765625,0)" xlink:href="#V"/><use transform="matrix(0.0087890625,0,0,0.0087890625,27.4833984375,0)" xlink:href="#ac"/><use transform="matrix(0.0087890625,0,0,0.0087890625,38.1181640625,0)" xlink:href="#H"/><use transform="matrix(0.0087890625,0,0,0.0087890625,47.619140625,0)" xlink:href="#V"/><use transform="matrix(0.0087890625,0,0,0.0087890625,57.7265625,0)" xlink:href="#ag"/><use transform="matrix(0.0087890625,0,0,0.0087890625,68.009765625,0)" xlink:href="#ah"/><use transform="matrix(0.0087890625,0,0,0.0087890625,73.8984375,0)" xlink:href="#M"/><use transform="matrix(0.0087890625,0,0,0.0087890625,78.2578125,0)" xlink:href="#af"/><use transform="matrix(0.0087890625,0,0,0.0087890625,89.05078125,0)" xlink:href="#ac"/></g><g id="E"><use transform="matrix(0.0087890625,0,0,0.0087890625,0,0)" xlink:href="#ag"/><use transform="matrix(0.0087890625,0,0,0.0087890625,10.283203125,0)" xlink:href="#ab"/><use transform="matrix(0.0087890625,0,0,0.0087890625,20.9267578125,0)" xlink:href="#H"/><use transform="matrix(0.0087890625,0,0,0.0087890625,30.427734375,0)" xlink:href="#ah"/><use transform="matrix(0.0087890625,0,0,0.0087890625,36.140625,0)" xlink:href="#af"/><use transform="matrix(0.0087890625,0,0,0.0087890625,46.93359375,0)" xlink:href="#U"/><use transform="matrix(0.0087890625,0,0,0.0087890625,62.701171875,0)" xlink:href="#I"/><use transform="matrix(0.0087890625,0,0,0.0087890625,73.1953125,0)" xlink:href="#J"/><use transform="matrix(0.0087890625,0,0,0.0087890625,79.9716796875,0)" xlink:href="#ai"/><use transform="matrix(0.0087890625,0,0,0.0087890625,88.787109375,0)" xlink:href="#M"/><use transform="matrix(0.0087890625,0,0,0.0087890625,93.146484375,0)" xlink:href="#N"/></g><g id="F"><use transform="matrix(0.0087890625,0,0,0.0087890625,0,0)" xlink:href="#V"/><use transform="matrix(0.0087890625,0,0,0.0087890625,10.107421875,0)" xlink:href="#U"/><use transform="matrix(0.0087890625,0,0,0.0087890625,25.875,0)" xlink:href="#af"/><use transform="matrix(0.0087890625,0,0,0.0087890625,36.66796875,0)" xlink:href="#ab"/><use transform="matrix(0.0087890625,0,0,0.0087890625,47.3115234375,0)" xlink:href="#ac"/><use transform="matrix(0.0087890625,0,0,0.0087890625,57.9462890625,0)" xlink:href="#ah"/></g></defs></g></svg>